<svg width="460" height="69" viewBox="0 0 460 69" fill="none" xmlns="http://www.w3.org/2000/svg">
<path d="M0 61.7143H6.85714V68.5714H0V61.7143ZM0 54.8571H6.85714V61.7143H0V54.8571ZM0 48H6.85714V54.8571H0V48ZM0 41.1429H6.85714V48H0V41.1429ZM0 34.2857H6.85714V41.1429H0V34.2857ZM0 27.4286H6.85714V34.2857H0V27.4286ZM6.85714 27.4286H13.7143V34.2857H6.85714V27.4286ZM6.85714 20.5714H13.7143V27.4286H6.85714V20.5714ZM6.85714 13.7143H13.7143V20.5714H6.85714V13.7143ZM6.85714 6.85714H13.7143V13.7143H6.85714V6.85714ZM0 6.85714H6.85714V13.7143H0V6.85714ZM0 0H6.85714V6.85714H0V0ZM0 13.7143H6.85714V20.5714H0V13.7143ZM0 20.5714H6.85714V27.4286H0V20.5714ZM6.85714 0H13.7143V6.85714H6.85714V0ZM6.85714 34.2857H13.7143V41.1429H6.85714V34.2857ZM6.85714 41.1429H13.7143V48H6.85714V41.1429ZM6.85714 48H13.7143V54.8571H6.85714V48ZM6.85714 54.8571H13.7143V61.7143H6.85714V54.8571ZM6.85714 61.7143H13.7143V68.5714H6.85714V61.7143ZM13.7143 13.7143H20.5714V20.5714H13.7143V13.7143ZM13.7143 20.5714H20.5714V27.4286H13.7143V20.5714ZM20.5714 20.5714H27.4286V27.4286H20.5714V20.5714ZM20.5714 27.4286H27.4286V34.2857H20.5714V27.4286ZM27.4286 27.4286H34.2857V34.2857H27.4286V27.4286ZM27.4286 34.2857H34.2857V41.1429H27.4286V34.2857ZM34.2857 27.4286H41.1429V34.2857H34.2857V27.4286ZM34.2857 20.5714H41.1429V27.4286H34.2857V20.5714ZM41.1429 20.5714H48V27.4286H41.1429V20.5714ZM41.1429 13.7143H48V20.5714H41.1429V13.7143ZM48 0H54.8571V6.85714H48V0ZM48 6.85714H54.8571V13.7143H48V6.85714ZM48 13.7143H54.8571V20.5714H48V13.7143ZM48 20.5714H54.8571V27.4286H48V20.5714ZM48 27.4286H54.8571V34.2857H48V27.4286ZM48 34.2857H54.8571V41.1429H48V34.2857ZM48 41.1429H54.8571V48H48V41.1429ZM48 48H54.8571V54.8571H48V48ZM48 54.8571H54.8571V61.7143H48V54.8571ZM48 61.7143H54.8571V68.5714H48V61.7143ZM54.8571 61.7143H61.7143V68.5714H54.8571V61.7143ZM54.8571 54.8571H61.7143V61.7143H54.8571V54.8571ZM54.8571 48H61.7143V54.8571H54.8571V48ZM54.8571 41.1429H61.7143V48H54.8571V41.1429ZM54.8571 34.2857H61.7143V41.1429H54.8571V34.2857ZM54.8571 27.4286H61.7143V34.2857H54.8571V27.4286ZM54.8571 20.5714H61.7143V27.4286H54.8571V20.5714ZM54.8571 13.7143H61.7143V20.5714H54.8571V13.7143ZM54.8571 6.85714H61.7143V13.7143H54.8571V6.85714ZM54.8571 0H61.7143V6.85714H54.8571V0ZM13.7143 6.85714H20.5714V13.7143H13.7143V6.85714ZM20.5714 13.7143H27.4286V20.5714H20.5714V13.7143ZM27.4286 20.5714H34.2857V27.4286H27.4286V20.5714ZM34.2857 13.7143H41.1429V20.5714H34.2857V13.7143ZM41.1429 6.85714H48V13.7143H41.1429V6.85714Z" fill="white"/>
<path d="M82.3393 13.7143H89.1964V20.5714H82.3393V13.7143ZM75.4821 13.7143H82.3393V20.5714H75.4821V13.7143ZM75.4821 20.5714H82.3393V27.4286H75.4821V20.5714ZM82.3393 20.5714H89.1964V27.4286H82.3393V20.5714ZM89.1964 13.7143H96.0536V20.5714H89.1964V13.7143ZM96.0536 13.7143H102.911V20.5714H96.0536V13.7143ZM102.911 13.7143H109.768V20.5714H102.911V13.7143ZM102.911 20.5714H109.768V27.4286H102.911V20.5714ZM96.0536 20.5714H102.911V27.4286H96.0536V20.5714ZM102.911 34.2857H109.768V41.1429H102.911V34.2857ZM109.768 20.5714H116.625V27.4286H109.768V20.5714ZM109.768 27.4286H116.625V34.2857H109.768V27.4286ZM109.768 34.2857H116.625V41.1429H109.768V34.2857ZM109.768 41.1429H116.625V48H109.768V41.1429ZM109.768 48H116.625V54.8571H109.768V48ZM109.768 54.8571H116.625V61.7143H109.768V54.8571ZM102.911 54.8571H109.768V61.7143H102.911V54.8571ZM102.911 48H109.768V54.8571H102.911V48ZM102.911 41.1429H109.768V48H102.911V41.1429ZM102.911 27.4286H109.768V34.2857H102.911V27.4286ZM96.0536 54.8571H102.911V61.7143H96.0536V54.8571ZM102.911 61.7143H109.768V68.5714H102.911V61.7143ZM96.0536 61.7143H102.911V68.5714H96.0536V61.7143ZM89.1964 61.7143H96.0536V68.5714H89.1964V61.7143ZM82.3393 61.7143H89.1964V68.5714H82.3393V61.7143ZM75.4821 61.7143H82.3393V68.5714H75.4821V61.7143ZM75.4821 54.8571H82.3393V61.7143H75.4821V54.8571ZM82.3393 54.8571H89.1964V61.7143H82.3393V54.8571ZM75.4821 48H82.3393V54.8571H75.4821V48ZM68.625 54.8571H75.4821V61.7143H68.625V54.8571ZM68.625 48H75.4821V54.8571H68.625V48ZM68.625 41.1429H75.4821V48H68.625V41.1429ZM68.625 34.2857H75.4821V41.1429H68.625V34.2857ZM68.625 27.4286H75.4821V34.2857H68.625V27.4286ZM68.625 20.5714H75.4821V27.4286H68.625V20.5714ZM75.4821 27.4286H82.3393V34.2857H75.4821V27.4286ZM75.4821 34.2857H82.3393V41.1429H75.4821V34.2857ZM75.4821 41.1429H82.3393V48H75.4821V41.1429ZM89.1964 54.8571H96.0536V61.7143H89.1964V54.8571ZM89.1964 20.5714H96.0536V27.4286H89.1964V20.5714Z" fill="white"/>
<path d="M123.5 13.7143H130.357V20.5714H123.5V13.7143ZM130.357 13.7143H137.214V20.5714H130.357V13.7143ZM130.357 20.5714H137.214V27.4286H130.357V20.5714ZM130.357 27.4286H137.214V34.2857H130.357V27.4286ZM130.357 34.2857H137.214V41.1429H130.357V34.2857ZM130.357 41.1429H137.214V48H130.357V41.1429ZM123.5 41.1429H130.357V48H123.5V41.1429ZM123.5 34.2857H130.357V41.1429H123.5V34.2857ZM123.5 27.4286H130.357V34.2857H123.5V27.4286ZM123.5 20.5714H130.357V27.4286H123.5V20.5714ZM130.357 48H137.214V54.8571H130.357V48ZM137.214 48H144.071V54.8571H137.214V48ZM137.214 54.8571H144.071V61.7143H137.214V54.8571ZM144.071 54.8571H150.929V61.7143H144.071V54.8571ZM144.071 61.7143H150.929V68.5714H144.071V61.7143ZM150.929 54.8571H157.786V61.7143H150.929V54.8571ZM150.929 48H157.786V54.8571H150.929V48ZM157.786 48H164.643V54.8571H157.786V48ZM157.786 41.1429H164.643V48H157.786V41.1429ZM157.786 34.2857H164.643V41.1429H157.786V34.2857ZM157.786 27.4286H164.643V34.2857H157.786V27.4286ZM157.786 20.5714H164.643V27.4286H157.786V20.5714ZM157.786 13.7143H164.643V20.5714H157.786V13.7143ZM164.643 34.2857H171.5V41.1429H164.643V34.2857ZM164.643 41.1429H171.5V48H164.643V41.1429ZM164.643 27.4286H171.5V34.2857H164.643V27.4286ZM164.643 20.5714H171.5V27.4286H164.643V20.5714ZM164.643 13.7143H171.5V20.5714H164.643V13.7143ZM144.071 48H150.929V54.8571H144.071V48ZM137.214 41.1429H144.071V48H137.214V41.1429ZM150.929 41.1429H157.786V48H150.929V41.1429Z" fill="white"/>
<path d="M178.375 0H192.089V13.7143H178.375V0ZM178.375 20.5714H192.089V68.5714H178.375V20.5714Z" fill="white"/>
<path d="M212.714 13.7143H219.571V20.5714H212.714V13.7143ZM205.857 13.7143H212.714V20.5714H205.857V13.7143ZM205.857 20.5714H212.714V27.4286H205.857V20.5714ZM212.714 20.5714H219.571V27.4286H212.714V20.5714ZM219.571 13.7143H226.429V20.5714H219.571V13.7143ZM226.429 13.7143H233.286V20.5714H226.429V13.7143ZM233.286 13.7143H240.143V20.5714H233.286V13.7143ZM233.286 20.5714H240.143V27.4286H233.286V20.5714ZM226.429 20.5714H233.286V27.4286H226.429V20.5714ZM240.143 20.5714H247V27.4286H240.143V20.5714ZM240.143 27.4286H247V34.2857H240.143V27.4286ZM240.143 54.8571H247V61.7143H240.143V54.8571ZM233.286 54.8571H240.143V61.7143H233.286V54.8571ZM233.286 27.4286H240.143V34.2857H233.286V27.4286ZM226.429 54.8571H233.286V61.7143H226.429V54.8571ZM233.286 61.7143H240.143V68.5714H233.286V61.7143ZM226.429 61.7143H233.286V68.5714H226.429V61.7143ZM219.571 61.7143H226.429V68.5714H219.571V61.7143ZM212.714 61.7143H219.571V68.5714H212.714V61.7143ZM205.857 61.7143H212.714V68.5714H205.857V61.7143ZM205.857 54.8571H212.714V61.7143H205.857V54.8571ZM212.714 54.8571H219.571V61.7143H212.714V54.8571ZM205.857 48H212.714V54.8571H205.857V48ZM199 54.8571H205.857V61.7143H199V54.8571ZM199 48H205.857V54.8571H199V48ZM199 41.1429H205.857V48H199V41.1429ZM199 34.2857H205.857V41.1429H199V34.2857ZM199 27.4286H205.857V34.2857H199V27.4286ZM199 20.5714H205.857V27.4286H199V20.5714ZM205.857 27.4286H212.714V34.2857H205.857V27.4286ZM205.857 34.2857H212.714V41.1429H205.857V34.2857ZM205.857 41.1429H212.714V48H205.857V41.1429ZM219.571 54.8571H226.429V61.7143H219.571V54.8571ZM219.571 20.5714H226.429V27.4286H219.571V20.5714ZM233.286 34.2857H240.143V41.1429H233.286V34.2857ZM240.143 34.2857H247V41.1429H240.143V34.2857ZM212.714 41.1429H219.571V48H212.714V41.1429ZM219.571 41.1429H226.429V48H219.571V41.1429ZM226.429 41.1429H233.286V48H226.429V41.1429ZM233.286 41.1429H240.143V48H233.286V41.1429ZM240.143 41.1429H247V48H240.143V41.1429ZM226.429 34.2857H233.286V41.1429H226.429V34.2857ZM219.571 34.2857H226.429V41.1429H219.571V34.2857ZM212.714 34.2857H219.571V41.1429H212.714V34.2857Z" fill="white"/>
<path d="M267.589 0H274.446V6.85714H267.589V0ZM260.732 0H267.589V6.85714H260.732V0ZM260.732 6.85714H267.589V13.7143H260.732V6.85714ZM267.589 6.85714H274.446V13.7143H267.589V6.85714ZM274.446 6.85714H281.304V13.7143H274.446V6.85714ZM274.446 0H281.304V6.85714H274.446V0ZM281.304 0H288.161V6.85714H281.304V0ZM288.161 0H295.018V6.85714H288.161V0ZM288.161 6.85714H295.018V13.7143H288.161V6.85714ZM281.304 6.85714H288.161V13.7143H281.304V6.85714ZM288.161 13.7143H295.018V20.5714H288.161V13.7143ZM295.018 6.85714H301.875V13.7143H295.018V6.85714ZM295.018 13.7143H301.875V20.5714H295.018V13.7143ZM295.018 48H301.875V54.8571H295.018V48ZM295.018 54.8571H301.875V61.7143H295.018V54.8571ZM288.161 54.8571H295.018V61.7143H288.161V54.8571ZM288.161 48H295.018V54.8571H288.161V48ZM281.304 54.8571H288.161V61.7143H281.304V54.8571ZM288.161 61.7143H295.018V68.5714H288.161V61.7143ZM281.304 61.7143H288.161V68.5714H281.304V61.7143ZM274.446 61.7143H281.304V68.5714H274.446V61.7143ZM274.446 54.8571H281.304V61.7143H274.446V54.8571ZM267.589 61.7143H274.446V68.5714H267.589V61.7143ZM260.732 61.7143H267.589V68.5714H260.732V61.7143ZM260.732 54.8571H267.589V61.7143H260.732V54.8571ZM267.589 54.8571H274.446V61.7143H267.589V54.8571ZM267.589 48H274.446V54.8571H267.589V48ZM260.732 48H267.589V54.8571H260.732V48ZM253.875 54.8571H260.732V61.7143H253.875V54.8571ZM253.875 48H260.732V54.8571H253.875V48ZM253.875 41.1429H260.732V48H253.875V41.1429ZM253.875 34.2857H260.732V41.1429H253.875V34.2857ZM253.875 27.4286H260.732V34.2857H253.875V27.4286ZM253.875 20.5714H260.732V27.4286H253.875V20.5714ZM253.875 13.7143H260.732V20.5714H253.875V13.7143ZM260.732 13.7143H267.589V20.5714H260.732V13.7143ZM253.875 6.85714H260.732V13.7143H253.875V6.85714ZM267.589 13.7143H274.446V20.5714H267.589V13.7143ZM260.732 20.5714H267.589V27.4286H260.732V20.5714ZM260.732 27.4286H267.589V34.2857H260.732V27.4286ZM260.732 34.2857H267.589V41.1429H260.732V34.2857ZM260.732 41.1429H267.589V48H260.732V41.1429ZM295.018 41.1429H301.875V48H295.018V41.1429ZM288.161 41.1429H295.018V48H288.161V41.1429ZM288.161 34.2857H295.018V41.1429H288.161V34.2857ZM295.018 34.2857H301.875V41.1429H295.018V34.2857ZM295.018 27.4286H301.875V34.2857H295.018V27.4286ZM288.161 27.4286H295.018V34.2857H288.161V27.4286ZM281.304 27.4286H288.161V34.2857H281.304V27.4286ZM274.446 27.4286H281.304V34.2857H274.446V27.4286ZM274.446 34.2857H281.304V41.1429H274.446V34.2857ZM281.304 34.2857H288.161V41.1429H281.304V34.2857Z" fill="white"/>
<path d="M322.464 13.7143H329.321V20.5714H322.464V13.7143ZM315.607 13.7143H322.464V20.5714H315.607V13.7143ZM315.607 20.5714H322.464V27.4286H315.607V20.5714ZM322.464 20.5714H329.321V27.4286H322.464V20.5714ZM329.321 13.7143H336.179V20.5714H329.321V13.7143ZM336.179 13.7143H343.036V20.5714H336.179V13.7143ZM343.036 13.7143H349.893V20.5714H343.036V13.7143ZM343.036 20.5714H349.893V27.4286H343.036V20.5714ZM336.179 20.5714H343.036V27.4286H336.179V20.5714ZM349.893 20.5714H356.75V27.4286H349.893V20.5714ZM349.893 27.4286H356.75V34.2857H349.893V27.4286ZM349.893 54.8571H356.75V61.7143H349.893V54.8571ZM343.036 54.8571H349.893V61.7143H343.036V54.8571ZM343.036 27.4286H349.893V34.2857H343.036V27.4286ZM336.179 54.8571H343.036V61.7143H336.179V54.8571ZM343.036 61.7143H349.893V68.5714H343.036V61.7143ZM336.179 61.7143H343.036V68.5714H336.179V61.7143ZM329.321 61.7143H336.179V68.5714H329.321V61.7143ZM322.464 61.7143H329.321V68.5714H322.464V61.7143ZM315.607 61.7143H322.464V68.5714H315.607V61.7143ZM315.607 54.8571H322.464V61.7143H315.607V54.8571ZM322.464 54.8571H329.321V61.7143H322.464V54.8571ZM315.607 48H322.464V54.8571H315.607V48ZM308.75 54.8571H315.607V61.7143H308.75V54.8571ZM308.75 48H315.607V54.8571H308.75V48ZM308.75 41.1429H315.607V48H308.75V41.1429ZM308.75 34.2857H315.607V41.1429H308.75V34.2857ZM308.75 27.4286H315.607V34.2857H308.75V27.4286ZM308.75 20.5714H315.607V27.4286H308.75V20.5714ZM315.607 27.4286H322.464V34.2857H315.607V27.4286ZM315.607 34.2857H322.464V41.1429H315.607V34.2857ZM315.607 41.1429H322.464V48H315.607V41.1429ZM329.321 54.8571H336.179V61.7143H329.321V54.8571ZM329.321 20.5714H336.179V27.4286H329.321V20.5714ZM343.036 34.2857H349.893V41.1429H343.036V34.2857ZM349.893 34.2857H356.75V41.1429H349.893V34.2857ZM322.464 41.1429H329.321V48H322.464V41.1429ZM329.321 41.1429H336.179V48H329.321V41.1429ZM336.179 41.1429H343.036V48H336.179V41.1429ZM343.036 41.1429H349.893V48H343.036V41.1429ZM349.893 41.1429H356.75V48H349.893V41.1429ZM336.179 34.2857H343.036V41.1429H336.179V34.2857ZM329.321 34.2857H336.179V41.1429H329.321V34.2857ZM322.464 34.2857H329.321V41.1429H322.464V34.2857Z" fill="white"/>
<path d="M377.339 13.7143H384.196V20.5714H377.339V13.7143ZM370.482 13.7143H377.339V20.5714H370.482V13.7143ZM370.482 20.5714H377.339V27.4286H370.482V20.5714ZM377.339 20.5714H384.196V27.4286H377.339V20.5714ZM384.196 13.7143H391.054V20.5714H384.196V13.7143ZM391.054 13.7143H397.911V20.5714H391.054V13.7143ZM397.911 13.7143H404.768V20.5714H397.911V13.7143ZM397.911 20.5714H404.768V27.4286H397.911V20.5714ZM391.054 20.5714H397.911V27.4286H391.054V20.5714ZM404.768 20.5714H411.625V27.4286H404.768V20.5714ZM404.768 27.4286H411.625V34.2857H404.768V27.4286ZM404.768 54.8571H411.625V61.7143H404.768V54.8571ZM397.911 54.8571H404.768V61.7143H397.911V54.8571ZM397.911 27.4286H404.768V34.2857H397.911V27.4286ZM391.054 54.8571H397.911V61.7143H391.054V54.8571ZM397.911 61.7143H404.768V68.5714H397.911V61.7143ZM391.054 61.7143H397.911V68.5714H391.054V61.7143ZM384.196 61.7143H391.054V68.5714H384.196V61.7143ZM377.339 61.7143H384.196V68.5714H377.339V61.7143ZM370.482 61.7143H377.339V68.5714H370.482V61.7143ZM370.482 54.8571H377.339V61.7143H370.482V54.8571ZM377.339 54.8571H384.196V61.7143H377.339V54.8571ZM370.482 48H377.339V54.8571H370.482V48ZM363.625 54.8571H370.482V61.7143H363.625V54.8571ZM363.625 48H370.482V54.8571H363.625V48ZM363.625 41.1429H370.482V48H363.625V41.1429ZM363.625 34.2857H370.482V41.1429H363.625V34.2857ZM363.625 27.4286H370.482V34.2857H363.625V27.4286ZM363.625 20.5714H370.482V27.4286H363.625V20.5714ZM370.482 27.4286H377.339V34.2857H370.482V27.4286ZM370.482 34.2857H377.339V41.1429H370.482V34.2857ZM370.482 41.1429H377.339V48H370.482V41.1429ZM384.196 54.8571H391.054V61.7143H384.196V54.8571ZM384.196 20.5714H391.054V27.4286H384.196V20.5714ZM397.911 34.2857H404.768V41.1429H397.911V34.2857ZM404.768 34.2857H411.625V41.1429H404.768V34.2857ZM377.339 41.1429H384.196V48H377.339V41.1429ZM384.196 41.1429H391.054V48H384.196V41.1429ZM391.054 41.1429H397.911V48H391.054V41.1429ZM397.911 41.1429H404.768V48H397.911V41.1429ZM404.768 41.1429H411.625V48H404.768V41.1429ZM391.054 34.2857H397.911V41.1429H391.054V34.2857ZM384.196 34.2857H391.054V41.1429H384.196V34.2857ZM377.339 34.2857H384.196V41.1429H377.339V34.2857Z" fill="white"/>
<path d="M418.5 0H425.357V6.85714H418.5V0ZM425.357 0H432.214V6.85714H425.357V0ZM425.357 6.85714H432.214V13.7143H425.357V6.85714ZM425.357 13.7143H432.214V20.5714H425.357V13.7143ZM425.357 20.5714H432.214V27.4286H425.357V20.5714ZM418.5 20.5714H425.357V27.4286H418.5V20.5714ZM418.5 13.7143H425.357V20.5714H418.5V13.7143ZM418.5 6.85714H425.357V13.7143H418.5V6.85714ZM418.5 27.4286H425.357V34.2857H418.5V27.4286ZM418.5 34.2857H425.357V41.1429H418.5V34.2857ZM418.5 41.1429H425.357V48H418.5V41.1429ZM418.5 48H425.357V54.8571H418.5V48ZM418.5 54.8571H425.357V61.7143H418.5V54.8571ZM418.5 61.7143H425.357V68.5714H418.5V61.7143ZM425.357 61.7143H432.214V68.5714H425.357V61.7143ZM425.357 54.8571H432.214V61.7143H425.357V54.8571ZM425.357 48H432.214V54.8571H425.357V48ZM425.357 41.1429H432.214V48H425.357V41.1429ZM425.357 34.2857H432.214V41.1429H425.357V34.2857ZM425.357 27.4286H432.214V34.2857H425.357V27.4286ZM432.214 34.2857H439.071V41.1429H432.214V34.2857ZM439.071 34.2857H445.929V41.1429H439.071V34.2857ZM439.071 27.4286H445.929V34.2857H439.071V27.4286ZM445.929 27.4286H452.786V34.2857H445.929V27.4286ZM445.929 20.5714H452.786V27.4286H445.929V20.5714ZM445.929 13.7143H452.786V20.5714H445.929V13.7143ZM452.786 13.7143H459.643V20.5714H452.786V13.7143ZM452.786 20.5714H459.643V27.4286H452.786V20.5714ZM439.071 41.1429H445.929V48H439.071V41.1429ZM445.929 41.1429H452.786V48H445.929V41.1429ZM452.786 48H459.643V54.8571H452.786V48ZM445.929 48H452.786V54.8571H445.929V48ZM445.929 54.8571H452.786V61.7143H445.929V54.8571ZM452.786 54.8571H459.643V61.7143H452.786V54.8571ZM452.786 61.7143H459.643V68.5714H452.786V61.7143ZM445.929 61.7143H452.786V68.5714H445.929V61.7143Z" fill="white"/>
</svg>
