<svg width="478" height="75" viewBox="0 0 478 75" fill="none" xmlns="http://www.w3.org/2000/svg">
<path d="M9.792 74.016C6.464 74.016 4 73.024 2.4 71.04C0.8 69.056 0 66.4 0 63.072V18.336C0 13.472 1.312 9.888 3.936 7.584C6.624 5.28 9.824 4.128 13.536 4.128C17.056 4.128 20.032 5.28 22.464 7.584C24.96 9.888 26.784 13.536 27.936 18.528L35.424 51.072H37.92L45.408 18.528C46.56 13.536 48.384 9.888 50.88 7.584C53.44 5.28 56.48 4.128 60 4.128C63.712 4.128 66.88 5.28 69.504 7.584C72.192 9.888 73.536 13.472 73.536 18.336V63.072C73.536 66.4 72.704 69.056 71.04 71.04C69.44 73.024 66.976 74.016 63.648 74.016C60.448 74.016 57.984 73.024 56.256 71.04C54.528 69.056 53.664 66.4 53.664 63.072V37.248C53.664 36.608 53.568 36.032 53.376 35.52C53.248 34.944 52.832 34.656 52.128 34.656C51.552 34.656 51.136 34.944 50.88 35.52C50.624 36.032 50.432 36.608 50.304 37.248L46.656 61.44C46.208 64.064 45.664 66.336 45.024 68.256C44.448 70.112 43.52 71.552 42.24 72.576C40.96 73.536 39.104 74.016 36.672 74.016C34.304 74.016 32.448 73.536 31.104 72.576C29.824 71.552 28.864 70.112 28.224 68.256C27.648 66.336 27.168 64.064 26.784 61.44L23.04 37.248C22.976 36.608 22.816 36.032 22.56 35.52C22.304 34.944 21.856 34.656 21.216 34.656C20.576 34.656 20.16 34.944 19.968 35.52C19.776 36.032 19.68 36.608 19.68 37.248V63.072C19.68 66.4 18.816 69.056 17.088 71.04C15.424 73.024 12.992 74.016 9.792 74.016Z" fill="white"/>
<path d="M103.399 74.208C95.9115 74.208 89.9275 72 85.4475 67.584C81.0315 63.104 78.8235 56.8 78.8235 48.672C78.8235 43.68 79.8475 39.296 81.8955 35.52C83.9435 31.744 86.7915 28.8 90.4395 26.688C94.1515 24.512 98.4715 23.424 103.399 23.424C108.903 23.424 113.48 24.512 117.128 26.688C120.776 28.8 123.496 31.744 125.288 35.52C127.144 39.296 128.072 43.68 128.072 48.672C128.072 56.8 126.024 63.104 121.928 67.584C117.896 72 111.719 74.208 103.399 74.208ZM90.2475 47.04C90.2475 49.024 91.2395 50.432 93.2235 51.264C95.2075 52.032 98.5995 52.416 103.399 52.416C108.199 52.416 111.591 52.032 113.576 51.264C115.559 50.432 116.551 49.024 116.551 47.04C116.551 45.12 115.559 43.776 113.576 43.008C111.591 42.24 108.199 41.856 103.399 41.856C98.5995 41.856 95.2075 42.24 93.2235 43.008C91.2395 43.776 90.2475 45.12 90.2475 47.04Z" fill="white"/>
<path d="M154.324 74.016C150.164 74.016 146.612 72.8 143.668 70.368C140.724 67.936 138.292 63.904 136.372 58.272L128.788 36.384C127.764 33.504 127.764 30.848 128.788 28.416C129.876 25.984 131.86 24.448 134.74 23.808C137.3 23.232 139.54 23.488 141.46 24.576C143.444 25.664 144.852 27.488 145.684 30.048L153.172 52.032C154.068 54.592 155.156 56.48 156.436 57.696C157.78 58.912 159.412 59.2 161.332 58.56C163.124 57.856 164.084 56.704 164.212 55.104C164.404 53.44 164.052 51.52 163.156 49.344C162.388 47.36 161.364 45.664 160.084 44.256C158.804 42.848 157.652 41.376 156.628 39.84C155.604 38.304 155.092 36.384 155.092 34.08C155.092 30.752 156.148 28.16 158.26 26.304C160.436 24.384 163.284 23.488 166.804 23.616C169.812 23.68 172.276 24.736 174.196 26.784C176.116 28.832 177.076 31.424 177.076 34.56C177.076 36.288 176.788 38.144 176.212 40.128C175.636 42.112 174.996 44.192 174.292 46.368L170.452 58.464C169.428 61.664 168.276 64.448 166.996 66.816C165.78 69.12 164.18 70.912 162.196 72.192C160.276 73.408 157.652 74.016 154.324 74.016Z" fill="white"/>
<path d="M180.542 12.672C180.542 9.92 181.374 7.712 183.038 6.048C184.766 4.32 187.134 3.456 190.142 3.456C193.342 3.456 195.71 4.288 197.246 5.952C198.846 7.616 199.646 9.824 199.646 12.576C199.646 15.264 198.846 17.44 197.246 19.104C195.71 20.704 193.342 21.504 190.142 21.504C187.006 21.504 184.606 20.704 182.942 19.104C181.342 17.44 180.542 15.296 180.542 12.672ZM190.142 74.016C187.134 74.016 184.894 73.184 183.422 71.52C181.95 69.856 181.214 67.776 181.214 65.28V32.448C181.214 29.696 181.95 27.52 183.422 25.92C184.894 24.32 187.134 23.52 190.142 23.52C193.15 23.52 195.39 24.32 196.862 25.92C198.398 27.52 199.166 29.632 199.166 32.256V65.28C199.166 67.776 198.366 69.856 196.766 71.52C195.23 73.184 193.022 74.016 190.142 74.016Z" fill="white"/>
<path d="M204.074 49.056C204.074 44 205.065 39.552 207.049 35.712C209.097 31.872 211.977 28.864 215.689 26.688C219.465 24.512 223.946 23.424 229.13 23.424C233.162 23.424 236.778 24.16 239.978 25.632C243.242 27.104 245.802 29.088 247.658 31.584C249.514 34.016 250.441 36.704 250.441 39.648C250.441 42.72 249.545 44.896 247.753 46.176C245.961 47.456 243.306 48.096 239.786 48.096H219.626C219.626 49.76 220.266 51.136 221.546 52.224C222.89 53.312 225.13 53.856 228.266 53.856C229.866 53.856 231.338 53.696 232.682 53.376C234.09 53.056 235.498 52.768 236.906 52.512C238.378 52.192 240.009 52.032 241.801 52.032C244.361 52.032 246.473 52.96 248.137 54.816C249.801 56.608 250.633 59.104 250.633 62.304C250.633 66.08 248.681 69.024 244.777 71.136C240.937 73.248 235.881 74.304 229.609 74.304C225.193 74.304 221.034 73.44 217.13 71.712C213.29 69.984 210.153 67.264 207.721 63.552C205.289 59.776 204.074 54.944 204.074 49.056ZM235.178 44.928C236.138 44.928 236.457 44.48 236.137 43.584C235.881 42.688 235.113 41.76 233.833 40.8C232.553 39.84 230.698 39.36 228.266 39.36C225.45 39.36 223.338 39.968 221.93 41.184C220.586 42.4 219.913 43.648 219.913 44.928H235.178Z" fill="white"/>
<path d="M279.853 74.592C274.733 74.592 270.285 73.12 266.509 70.176C262.733 67.168 259.821 63.072 257.773 57.888C255.725 52.64 254.701 46.72 254.701 40.128C254.701 33.984 255.597 28.608 257.389 24C259.245 19.328 261.741 15.456 264.877 12.384C268.077 9.248 271.757 6.912 275.917 5.376C280.141 3.776 284.589 2.976 289.261 2.976C297.837 2.976 304.173 4.192 308.269 6.624C312.429 8.992 314.509 12.064 314.509 15.84C314.509 18.784 313.741 21.376 312.205 23.616C310.733 25.856 308.493 26.976 305.485 26.976C303.437 26.976 301.485 26.784 299.629 26.4C297.837 26.016 295.981 25.664 294.061 25.344C292.205 24.96 290.125 24.768 287.821 24.768C282.765 24.768 279.117 26.208 276.877 29.088C274.701 31.968 273.613 35.584 273.613 39.936C273.613 43.456 274.317 46.336 275.725 48.576C277.197 50.816 279.117 52.48 281.485 53.568C283.917 54.592 286.605 55.104 289.549 55.104C291.981 55.104 294.253 54.56 296.365 53.472C298.477 52.384 299.821 50.368 300.397 47.424H295.693C293.453 47.424 291.725 46.752 290.509 45.408C289.293 44 288.685 42.208 288.685 40.032C288.685 37.856 289.293 36.096 290.509 34.752C291.725 33.408 293.453 32.736 295.693 32.736H307.213C311.373 32.736 314.285 33.856 315.949 36.096C317.677 38.272 318.541 41.536 318.541 45.888V63.84C318.541 67.168 317.645 69.696 315.853 71.424C314.061 73.152 311.693 74.016 308.749 74.016C305.613 74.016 303.149 73.152 301.357 71.424C299.565 69.696 298.669 67.168 298.669 63.84V57.888H296.941C296.941 63.712 295.469 67.968 292.525 70.656C289.581 73.28 285.645 74.592 280.717 74.592H279.853Z" fill="white"/>
<path d="M322.48 49.056C322.48 44 323.472 39.552 325.456 35.712C327.504 31.872 330.384 28.864 334.096 26.688C337.872 24.512 342.352 23.424 347.536 23.424C351.568 23.424 355.184 24.16 358.384 25.632C361.648 27.104 364.208 29.088 366.064 31.584C367.92 34.016 368.848 36.704 368.848 39.648C368.848 42.72 367.952 44.896 366.16 46.176C364.368 47.456 361.712 48.096 358.192 48.096H338.032C338.032 49.76 338.672 51.136 339.952 52.224C341.296 53.312 343.536 53.856 346.672 53.856C348.272 53.856 349.744 53.696 351.088 53.376C352.496 53.056 353.904 52.768 355.312 52.512C356.784 52.192 358.416 52.032 360.208 52.032C362.768 52.032 364.88 52.96 366.544 54.816C368.208 56.608 369.04 59.104 369.04 62.304C369.04 66.08 367.088 69.024 363.184 71.136C359.344 73.248 354.288 74.304 348.016 74.304C343.6 74.304 339.44 73.44 335.536 71.712C331.696 69.984 328.56 67.264 326.128 63.552C323.696 59.776 322.48 54.944 322.48 49.056ZM353.584 44.928C354.544 44.928 354.864 44.48 354.544 43.584C354.288 42.688 353.52 41.76 352.24 40.8C350.96 39.84 349.104 39.36 346.672 39.36C343.856 39.36 341.744 39.968 340.336 41.184C338.992 42.4 338.32 43.648 338.32 44.928H353.584Z" fill="white"/>
<path d="M373.011 49.056C373.011 44 374.003 39.552 375.987 35.712C378.035 31.872 380.915 28.864 384.627 26.688C388.403 24.512 392.883 23.424 398.067 23.424C402.099 23.424 405.715 24.16 408.915 25.632C412.179 27.104 414.739 29.088 416.595 31.584C418.451 34.016 419.379 36.704 419.379 39.648C419.379 42.72 418.483 44.896 416.691 46.176C414.899 47.456 412.243 48.096 408.723 48.096H388.563C388.563 49.76 389.203 51.136 390.483 52.224C391.827 53.312 394.067 53.856 397.203 53.856C398.803 53.856 400.275 53.696 401.619 53.376C403.027 53.056 404.435 52.768 405.843 52.512C407.315 52.192 408.947 52.032 410.739 52.032C413.299 52.032 415.411 52.96 417.075 54.816C418.739 56.608 419.571 59.104 419.571 62.304C419.571 66.08 417.619 69.024 413.715 71.136C409.875 73.248 404.819 74.304 398.547 74.304C394.131 74.304 389.971 73.44 386.067 71.712C382.227 69.984 379.091 67.264 376.659 63.552C374.227 59.776 373.011 54.944 373.011 49.056ZM404.115 44.928C405.075 44.928 405.395 44.48 405.075 43.584C404.819 42.688 404.051 41.76 402.771 40.8C401.491 39.84 399.635 39.36 397.203 39.36C394.387 39.36 392.275 39.968 390.867 41.184C389.523 42.4 388.851 43.648 388.851 44.928H404.115Z" fill="white"/>
<path d="M433.142 74.016C430.326 74.016 428.086 73.184 426.422 71.52C424.758 69.792 423.926 67.68 423.926 65.184V9.6C423.926 6.912 424.726 4.64 426.326 2.784C427.99 0.927999 430.326 0 433.334 0C436.278 0 438.486 0.927999 439.958 2.784C441.494 4.64 442.262 6.944 442.262 9.696V38.784L442.55 38.88C442.87 36.192 443.702 33.728 445.046 31.488C446.39 29.184 448.278 27.328 450.71 25.92C453.142 24.512 456.118 23.808 459.638 23.808C464.374 23.808 468.182 25.12 471.062 27.744C473.942 30.368 475.382 33.952 475.382 38.496C475.382 41.632 474.742 44.128 473.462 45.984C472.246 47.776 470.582 49.024 468.47 49.728C466.358 50.432 464.022 50.752 461.462 50.688V52.32C467.158 52.32 471.19 53.472 473.558 55.776C475.99 58.016 477.206 60.864 477.206 64.32C477.206 67.52 476.246 69.984 474.326 71.712C472.406 73.44 470.102 74.272 467.414 74.208C464.47 74.144 462.038 73.28 460.118 71.616C458.198 69.952 456.598 67.712 455.318 64.896L451.19 56.16C450.358 54.432 449.27 53.184 447.926 52.416C446.646 51.648 444.758 51.36 442.262 51.552V65.184C442.262 67.68 441.43 69.792 439.766 71.52C438.166 73.184 435.958 74.016 433.142 74.016ZM444.278 45.024C444.278 45.92 444.726 46.592 445.622 47.04C446.582 47.424 448.534 47.616 451.478 47.616C454.358 47.616 456.278 47.424 457.238 47.04C458.198 46.656 458.678 45.984 458.678 45.024C458.678 44.128 458.198 43.456 457.238 43.008C456.278 42.56 454.39 42.336 451.574 42.336C448.566 42.336 446.582 42.56 445.622 43.008C444.726 43.456 444.278 44.128 444.278 45.024Z" fill="white"/>
</svg>
